<?xml version="1.0" encoding="UTF-8" standalone="no"?>
<svg
   xmlns:dc="http://purl.org/dc/elements/1.1/"
   xmlns:cc="http://creativecommons.org/ns#"
   xmlns:rdf="http://www.w3.org/1999/02/22-rdf-syntax-ns#"
   xmlns:svg="http://www.w3.org/2000/svg"
   xmlns="http://www.w3.org/2000/svg"
   xmlns:sodipodi="http://sodipodi.sourceforge.net/DTD/sodipodi-0.dtd"
   xmlns:inkscape="http://www.inkscape.org/namespaces/inkscape"
   version="1.1"
   id="svg2"
   xml:space="preserve"
   width="642.52002"
   height="144.01334"
   viewBox="0 0 642.52002 144.01334"
   sodipodi:docname="RGB_FACEIT_Logo_Dark.eps"><metadata
     id="metadata8"><rdf:RDF><cc:Work
         rdf:about=""><dc:format>image/svg+xml</dc:format><dc:type
           rdf:resource="http://purl.org/dc/dcmitype/StillImage" /></cc:Work></rdf:RDF></metadata><defs
     id="defs6"><clipPath
       clipPathUnits="userSpaceOnUse"
       id="clipPath20"><path
         d="m 4090.89,874.82 v -87.734 h 207.64 c 24.58,0 36.94,-6.238 36.94,-18.809 V 373.578 h 237.12 v 394.699 c 0,12.571 12.29,18.809 36.9,18.809 h 207.66 v 87.734 z m -470.6,-497.824 0.2,1.008 h 252.7 v 171.23 L 3619.86,651.41 Z M 2706.35,860.91 c -33.48,-12.144 -50.14,-28.219 -50.14,-48.277 V 436.734 c 0,-20.078 16.66,-36.171 50.14,-48.254 27.58,-9.609 57.77,-14.394 90.74,-14.394 h 422.93 v 87.676 h -291.36 c -25.12,0 -37.63,6.308 -37.63,18.894 v 100.192 h 328.99 v 87.715 h -328.99 v 100.226 c 0,12.527 12.51,18.793 37.63,18.793 h 291.36 v 87.711 h -422.93 c -32.97,0 -63.16,-4.844 -90.74,-14.383 z m -895.56,-59.246 c -73.48,-49.047 -110.24,-108.125 -110.24,-176.937 0,-68.989 36.76,-127.985 110.24,-176.997 73.53,-49.121 161.81,-73.644 265.05,-73.644 h 281.87 v 87.676 h -281.87 c -48.92,0 -81.88,20.683 -99,62.011 -9.22,22.559 -13.77,56.219 -13.77,100.954 0,44.64 4.55,78.226 13.77,100.824 17.12,41.344 50.08,62.031 99,62.031 h 281.87 v 87.711 h -281.87 c -103.24,0 -191.52,-24.488 -265.05,-73.629 z M 977.402,524.457 1081.47,723.086 1185.49,524.457 Z m 254.438,332.027 c -28.79,12.504 -59.32,18.809 -91.47,18.809 -33.02,0 -63.18,-6.473 -90.53,-19.449 -27.37,-12.965 -46.5,-29.637 -57.328,-50.094 L 766.367,374.086 H 897.93 l 32.812,62.648 h 301.198 l 32.55,-62.648 h 253.69 l -227.46,434.156 c -10.45,19.617 -30.12,35.75 -58.88,48.242 z M 50.1172,860.91 C 16.6992,848.766 0,832.691 0,812.633 V 374.086 h 234.902 v 206.762 h 328.926 v 87.715 H 234.902 v 100.226 c 0,12.527 12.52,18.793 37.559,18.793 h 291.367 v 87.711 h -422.91 c -33.008,0 -63.2813,-4.844 -90.8008,-14.383 z"
         id="path18" /></clipPath><linearGradient
       x1="0"
       y1="0"
       x2="1"
       y2="0"
       gradientUnits="userSpaceOnUse"
       gradientTransform="matrix(0,-501.714,-501.714,0,2408.57,875.292)"
       spreadMethod="pad"
       id="linearGradient36"><stop
         style="stop-opacity:1;stop-color:#14191e"
         offset="0"
         id="stop22" /><stop
         style="stop-opacity:1;stop-color:#14191e"
         offset="0.16226029"
         id="stop24" /><stop
         style="stop-opacity:1;stop-color:#32373c"
         offset="0.5"
         id="stop26" /><stop
         style="stop-opacity:1;stop-color:#32373c"
         offset="0.50333422"
         id="stop28" /><stop
         style="stop-opacity:1;stop-color:#14191e"
         offset="0.51"
         id="stop30" /><stop
         style="stop-opacity:1;stop-color:#14191e"
         offset="0.66787767"
         id="stop32" /><stop
         style="stop-opacity:1;stop-color:#23282d"
         offset="1"
         id="stop34" /></linearGradient><clipPath
       clipPathUnits="userSpaceOnUse"
       id="clipPath46"><path
         d="m 2664.23,149.406 h -2.12 l -1,-1.746 -27.24,-49.5975 -27.54,49.5975 -0.91,1.746 h -2.07 -39.41 -6.08 l 3.18,-4.976 51.82,-83.5316 V 5.48047 2.14844 h 3.43 34.74 3.37 V 5.48047 61.3203 l 52.3,83.0317 3.19,5.054 h -6.04 z"
         id="path44" /></clipPath><linearGradient
       x1="0"
       y1="0"
       x2="1"
       y2="0"
       gradientUnits="userSpaceOnUse"
       gradientTransform="matrix(0,-147.255,-147.255,0,2633.88,149.408)"
       spreadMethod="pad"
       id="linearGradient62"><stop
         style="stop-opacity:1;stop-color:#14191e"
         offset="0"
         id="stop48" /><stop
         style="stop-opacity:1;stop-color:#14191e"
         offset="0.16226029"
         id="stop50" /><stop
         style="stop-opacity:1;stop-color:#32373c"
         offset="0.5"
         id="stop52" /><stop
         style="stop-opacity:1;stop-color:#32373c"
         offset="0.50333422"
         id="stop54" /><stop
         style="stop-opacity:1;stop-color:#14191e"
         offset="0.51"
         id="stop56" /><stop
         style="stop-opacity:1;stop-color:#14191e"
         offset="0.66787767"
         id="stop58" /><stop
         style="stop-opacity:1;stop-color:#23282d"
         offset="1"
         id="stop60" /></linearGradient><clipPath
       clipPathUnits="userSpaceOnUse"
       id="clipPath72"><path
         d="m 2917.66,30.7109 c -4.74,0 -8.76,0.1485 -11.96,0.4883 -3.13,0.3321 -6.46,0.9922 -9.89,2 -3,0.7422 -5.21,2.0703 -6.65,3.8906 -1.44,1.8321 -2.21,4.0586 -2.21,6.9688 v 61.8044 c 0,5.645 2.17,9.289 6.61,11.367 5.18,2.395 13.25,3.653 23.88,3.653 10.58,0 18.6,-1.258 23.76,-3.731 4.57,-2.168 6.74,-5.82 6.74,-11.289 V 44.0586 c 0,-2.9102 -0.76,-5.2383 -2.13,-6.9688 -1.45,-1.8203 -3.53,-3.1484 -6.43,-3.8906 -3.31,-1.0078 -6.54,-1.6679 -9.69,-2 -3.23,-0.3398 -7.26,-0.4883 -12.03,-0.4883 z m 53.24,109.3201 c -4.96,3.071 -11.03,5.559 -17.98,7.485 -6.89,1.824 -13.12,2.976 -18.58,3.394 -5.4,0.5 -11.12,0.649 -17.08,0.649 -5.86,0 -11.5,-0.149 -16.77,-0.649 -5.4,-0.418 -11.62,-1.57 -18.52,-3.394 -6.95,-1.926 -12.96,-4.414 -17.91,-7.485 -5.12,-3.14 -9.54,-7.781 -13.11,-13.679 -3.69,-5.965 -5.55,-12.95 -5.55,-20.743 V 44.0586 c 0,-9.207 2.59,-17.168 7.57,-23.4883 4.88,-6.289 11.51,-10.85155 19.8,-13.67967 7.83,-2.65235 15.33,-4.46875 22.25,-5.48047 C 2901.93,0.5 2909.4,0 2917.26,0 c 8.28,0 16.23,0.601563 23.67,1.75 7.51,1.23828 15.1,3.30859 22.57,6.14063 7.82,3.07027 14.18,7.71097 18.87,13.83987 4.73,6.1406 7.09,13.6914 7.09,22.3281 v 61.5504 c 0,7.891 -1.79,14.922 -5.36,20.821 -3.49,5.89 -7.91,10.461 -13.2,13.601 z"
         id="path70" /></clipPath><linearGradient
       x1="0"
       y1="0"
       x2="1"
       y2="0"
       gradientUnits="userSpaceOnUse"
       gradientTransform="matrix(0,-151.553,-151.553,0,2917.43,151.557)"
       spreadMethod="pad"
       id="linearGradient88"><stop
         style="stop-opacity:1;stop-color:#14191e"
         offset="0"
         id="stop74" /><stop
         style="stop-opacity:1;stop-color:#14191e"
         offset="0.16226029"
         id="stop76" /><stop
         style="stop-opacity:1;stop-color:#32373c"
         offset="0.5"
         id="stop78" /><stop
         style="stop-opacity:1;stop-color:#32373c"
         offset="0.50333422"
         id="stop80" /><stop
         style="stop-opacity:1;stop-color:#14191e"
         offset="0.51"
         id="stop82" /><stop
         style="stop-opacity:1;stop-color:#14191e"
         offset="0.66787767"
         id="stop84" /><stop
         style="stop-opacity:1;stop-color:#23282d"
         offset="1"
         id="stop86" /></linearGradient><clipPath
       clipPathUnits="userSpaceOnUse"
       id="clipPath98"><path
         d="m 3235.13,149.406 h -3.41 V 44.0586 c 0,-5.1367 -1.49,-8.5391 -4.56,-10.2969 -2.47,-1.4023 -7.87,-3.0508 -19.66,-3.0508 -11.94,0 -17.54,1.6485 -20.15,3.1289 -3.16,1.75 -4.73,5.0821 -4.73,10.2188 v 102.0314 3.316 h -3.4 -34.76 -3.43 V 146.09 44.0586 C 3141.03,14.7813 3163.28,0 3207.09,0 c 43.87,0 66.18,14.7813 66.18,44.0586 v 102.0314 3.316 h -3.38 z"
         id="path96" /></clipPath><linearGradient
       x1="0"
       y1="0"
       x2="1"
       y2="0"
       gradientUnits="userSpaceOnUse"
       gradientTransform="matrix(0,-149.404,-149.404,0,3207.15,149.408)"
       spreadMethod="pad"
       id="linearGradient114"><stop
         style="stop-opacity:1;stop-color:#14191e"
         offset="0"
         id="stop100" /><stop
         style="stop-opacity:1;stop-color:#14191e"
         offset="0.16226029"
         id="stop102" /><stop
         style="stop-opacity:1;stop-color:#32373c"
         offset="0.5"
         id="stop104" /><stop
         style="stop-opacity:1;stop-color:#32373c"
         offset="0.50333422"
         id="stop106" /><stop
         style="stop-opacity:1;stop-color:#14191e"
         offset="0.51"
         id="stop108" /><stop
         style="stop-opacity:1;stop-color:#14191e"
         offset="0.66787767"
         id="stop110" /><stop
         style="stop-opacity:1;stop-color:#23282d"
         offset="1"
         id="stop112" /></linearGradient><clipPath
       clipPathUnits="userSpaceOnUse"
       id="clipPath124"><path
         d="m 3469.56,118.715 h 26.46 c 8.73,0 12.73,-1.317 14.61,-2.402 0.69,-0.489 3.14,-1.895 3.14,-7.891 V 98.3828 c 0,-3.3008 -0.56,-7.6953 -3.06,-9.5195 -1.33,-0.9102 -4.98,-2.4922 -14.69,-2.4922 h -26.46 z M 3562.95,7.37891 3524.14,60.9805 c 7.64,1.5703 14.17,4.3203 19.69,8.3789 7.18,5.2187 10.83,12.7734 10.83,22.3945 v 24.6371 c 0,12.207 -5.05,20.832 -15.02,25.968 -9.27,4.735 -23.45,7.047 -43.2,7.047 H 3431.41 3428 V 146.09 5.48047 2.14844 h 3.41 34.74 3.41 V 5.48047 57.4219 h 10.81 l 36.89,-53.76174 0.98,-1.51172 h 1.82 40.08 6.55 z"
         id="path122" /></clipPath><linearGradient
       x1="0"
       y1="0"
       x2="1"
       y2="0"
       gradientUnits="userSpaceOnUse"
       gradientTransform="matrix(0,-147.255,-147.255,0,3497.34,149.408)"
       spreadMethod="pad"
       id="linearGradient140"><stop
         style="stop-opacity:1;stop-color:#14191e"
         offset="0"
         id="stop126" /><stop
         style="stop-opacity:1;stop-color:#14191e"
         offset="0.16226029"
         id="stop128" /><stop
         style="stop-opacity:1;stop-color:#32373c"
         offset="0.5"
         id="stop130" /><stop
         style="stop-opacity:1;stop-color:#32373c"
         offset="0.50333422"
         id="stop132" /><stop
         style="stop-opacity:1;stop-color:#14191e"
         offset="0.51"
         id="stop134" /><stop
         style="stop-opacity:1;stop-color:#14191e"
         offset="0.66787767"
         id="stop136" /><stop
         style="stop-opacity:1;stop-color:#23282d"
         offset="1"
         id="stop138" /></linearGradient><clipPath
       clipPathUnits="userSpaceOnUse"
       id="clipPath150"><path
         d="m 74.043,30.7109 c -32.4805,0 -32.4805,11.8594 -32.4805,15.7579 v 59.8122 c 0,3.305 0.6836,6.039 2.0117,7.961 1.2891,1.906 3.2617,3.313 6.0352,4.219 3.2109,1.086 6.2969,1.75 9.2578,2.004 3.0976,0.332 7.1484,0.418 12.0234,0.418 12.293,0 27.3321,-2 44.6754,-5.977 l 4.2,-0.906 v 4.141 25.379 2.832 l -2.864,0.402 c -19.7223,3.238 -35.359,4.805 -46.4332,4.805 C 23.6914,151.559 0,136.215 0,105.863 V 44.0586 C 0,36.5117 1.71875,29.8789 5.15625,24.3203 8.52344,18.7383 12.7539,14.3594 17.7148,11.2813 22.5195,8.21875 28.3906,5.80078 35.1758,4.08203 41.7969,2.42188 47.8906,1.33984 53.3008,0.75 58.7109,0.261719 64.4727,0 70.4688,0 85.4297,0 101.406,1.58984 117.898,4.82031 l 2.766,0.57813 v 2.65234 25.64842 4.1406 l -4.199,-0.9882 C 98.5352,32.7813 84.2578,30.7109 74.043,30.7109 Z"
         id="path148" /></clipPath><linearGradient
       x1="0"
       y1="0"
       x2="1"
       y2="0"
       gradientUnits="userSpaceOnUse"
       gradientTransform="matrix(0,-151.553,-151.553,0,60.332,151.557)"
       spreadMethod="pad"
       id="linearGradient166"><stop
         style="stop-opacity:1;stop-color:#ff5f00"
         offset="0"
         id="stop152" /><stop
         style="stop-opacity:1;stop-color:#ff5f00"
         offset="0.18183991"
         id="stop154" /><stop
         style="stop-opacity:1;stop-color:#ff6e0f"
         offset="0.480408"
         id="stop156" /><stop
         style="stop-opacity:1;stop-color:#fc5500"
         offset="0.48651735"
         id="stop158" /><stop
         style="stop-opacity:1;stop-color:#fc5500"
         offset="0.510816"
         id="stop160" /><stop
         style="stop-opacity:1;stop-color:#ff6900"
         offset="0.81211931"
         id="stop162" /><stop
         style="stop-opacity:1;stop-color:#ff6900"
         offset="1"
         id="stop164" /></linearGradient><clipPath
       clipPathUnits="userSpaceOnUse"
       id="clipPath176"><path
         d="m 366.516,149.406 h -3.411 V 93.0898 h -54.648 v 53.0002 3.316 h -3.43 -34.746 -3.418 V 146.09 5.48047 2.14844 h 3.418 34.746 3.43 V 5.48047 62.4102 h 54.648 V 5.48047 2.14844 h 3.411 34.754 3.41 V 5.48047 146.09 v 3.316 h -3.41 z"
         id="path174" /></clipPath><linearGradient
       x1="0"
       y1="0"
       x2="1"
       y2="0"
       gradientUnits="userSpaceOnUse"
       gradientTransform="matrix(0,-147.255,-147.255,0,335.771,149.408)"
       spreadMethod="pad"
       id="linearGradient192"><stop
         style="stop-opacity:1;stop-color:#ff5f00"
         offset="0"
         id="stop178" /><stop
         style="stop-opacity:1;stop-color:#ff5f00"
         offset="0.18183991"
         id="stop180" /><stop
         style="stop-opacity:1;stop-color:#ff6e0f"
         offset="0.480408"
         id="stop182" /><stop
         style="stop-opacity:1;stop-color:#fc5500"
         offset="0.48651735"
         id="stop184" /><stop
         style="stop-opacity:1;stop-color:#fc5500"
         offset="0.510816"
         id="stop186" /><stop
         style="stop-opacity:1;stop-color:#ff6900"
         offset="0.81211931"
         id="stop188" /><stop
         style="stop-opacity:1;stop-color:#ff6900"
         offset="1"
         id="stop190" /></linearGradient><clipPath
       clipPathUnits="userSpaceOnUse"
       id="clipPath202"><path
         d="m 637.938,66.6992 h -32.704 l 16.348,47.3668 z m 9.125,80.5628 -0.813,2.144 h -2.402 -42.305 -2.355 L 598.352,147.262 544.883,6.64063 543.164,2.14844 h 4.902 34.317 2.453 l 0.777,2.25 11.907,34.83986 h 47.91 l 12.136,-34.83986 0.774,-2.25 h 2.461 35.215 4.843 l -1.679,4.49219 z"
         id="path200" /></clipPath><linearGradient
       x1="0"
       y1="0"
       x2="1"
       y2="0"
       gradientUnits="userSpaceOnUse"
       gradientTransform="matrix(0,-147.255,-147.255,0,622.011,149.408)"
       spreadMethod="pad"
       id="linearGradient218"><stop
         style="stop-opacity:1;stop-color:#ff5f00"
         offset="0"
         id="stop204" /><stop
         style="stop-opacity:1;stop-color:#ff5f00"
         offset="0.18183991"
         id="stop206" /><stop
         style="stop-opacity:1;stop-color:#ff6e0f"
         offset="0.480408"
         id="stop208" /><stop
         style="stop-opacity:1;stop-color:#fc5500"
         offset="0.48651735"
         id="stop210" /><stop
         style="stop-opacity:1;stop-color:#fc5500"
         offset="0.510816"
         id="stop212" /><stop
         style="stop-opacity:1;stop-color:#ff6900"
         offset="0.81211931"
         id="stop214" /><stop
         style="stop-opacity:1;stop-color:#ff6900"
         offset="1"
         id="stop216" /></linearGradient><clipPath
       clipPathUnits="userSpaceOnUse"
       id="clipPath228"><path
         d="M 880.957,32.8594 V 149.406 H 839.375 V 2.14844 h 3.406 105.852 3.379 v 3.33203 24.05863 3.3203 h -3.379 z"
         id="path226" /></clipPath><linearGradient
       x1="0"
       y1="0"
       x2="1"
       y2="0"
       gradientUnits="userSpaceOnUse"
       gradientTransform="matrix(0,-147.255,-147.255,0,895.693,149.408)"
       spreadMethod="pad"
       id="linearGradient244"><stop
         style="stop-opacity:1;stop-color:#ff5f00"
         offset="0"
         id="stop230" /><stop
         style="stop-opacity:1;stop-color:#ff5f00"
         offset="0.18183991"
         id="stop232" /><stop
         style="stop-opacity:1;stop-color:#ff6e0f"
         offset="0.480408"
         id="stop234" /><stop
         style="stop-opacity:1;stop-color:#fc5500"
         offset="0.48651735"
         id="stop236" /><stop
         style="stop-opacity:1;stop-color:#fc5500"
         offset="0.510816"
         id="stop238" /><stop
         style="stop-opacity:1;stop-color:#ff6900"
         offset="0.81211931"
         id="stop240" /><stop
         style="stop-opacity:1;stop-color:#ff6900"
         offset="1"
         id="stop242" /></linearGradient><clipPath
       clipPathUnits="userSpaceOnUse"
       id="clipPath254"><path
         d="M 1140.94,32.8594 V 149.406 h -41.59 V 2.14844 h 3.43 105.81 3.4 v 3.33203 24.05863 3.3203 h -3.4 z"
         id="path252" /></clipPath><linearGradient
       x1="0"
       y1="0"
       x2="1"
       y2="0"
       gradientUnits="userSpaceOnUse"
       gradientTransform="matrix(0,-147.255,-147.255,0,1155.67,149.408)"
       spreadMethod="pad"
       id="linearGradient270"><stop
         style="stop-opacity:1;stop-color:#ff5f00"
         offset="0"
         id="stop256" /><stop
         style="stop-opacity:1;stop-color:#ff5f00"
         offset="0.18183991"
         id="stop258" /><stop
         style="stop-opacity:1;stop-color:#ff6e0f"
         offset="0.480408"
         id="stop260" /><stop
         style="stop-opacity:1;stop-color:#fc5500"
         offset="0.48651735"
         id="stop262" /><stop
         style="stop-opacity:1;stop-color:#fc5500"
         offset="0.510816"
         id="stop264" /><stop
         style="stop-opacity:1;stop-color:#ff6900"
         offset="0.81211931"
         id="stop266" /><stop
         style="stop-opacity:1;stop-color:#ff6900"
         offset="1"
         id="stop268" /></linearGradient><clipPath
       clipPathUnits="userSpaceOnUse"
       id="clipPath280"><path
         d="m 1400.9,32.8594 v 29.5508 h 68.16 v 30.6796 h -3.4 -64.76 v 25.6252 h 72.1 3.42 v 3.32 24.055 3.316 h -3.42 -110.26 -3.42 V 146.09 5.48047 2.14844 h 3.42 112.49 3.4 v 3.33203 24.05863 3.3203 h -3.4 z"
         id="path278" /></clipPath><linearGradient
       x1="0"
       y1="0"
       x2="1"
       y2="0"
       gradientUnits="userSpaceOnUse"
       gradientTransform="matrix(0,-147.255,-147.255,0,1418.97,149.408)"
       spreadMethod="pad"
       id="linearGradient296"><stop
         style="stop-opacity:1;stop-color:#ff5f00"
         offset="0"
         id="stop282" /><stop
         style="stop-opacity:1;stop-color:#ff5f00"
         offset="0.18183991"
         id="stop284" /><stop
         style="stop-opacity:1;stop-color:#ff6e0f"
         offset="0.480408"
         id="stop286" /><stop
         style="stop-opacity:1;stop-color:#fc5500"
         offset="0.48651735"
         id="stop288" /><stop
         style="stop-opacity:1;stop-color:#fc5500"
         offset="0.510816"
         id="stop290" /><stop
         style="stop-opacity:1;stop-color:#ff6900"
         offset="0.81211931"
         id="stop292" /><stop
         style="stop-opacity:1;stop-color:#ff6900"
         offset="1"
         id="stop294" /></linearGradient><clipPath
       clipPathUnits="userSpaceOnUse"
       id="clipPath306"><path
         d="m 1734.51,149.406 h -3.4 V 60.582 l -63.75,87.422 -1.01,1.402 h -1.77 -35.19 -3.41 V 146.09 5.48047 2.14844 h 3.41 30.94 3.44 V 5.48047 92.418 l 63.73,-88.83597 1.02,-1.43359 h 1.79 35.17 3.43 V 5.48047 146.09 v 3.316 h -3.43 z"
         id="path304" /></clipPath><linearGradient
       x1="0"
       y1="0"
       x2="1"
       y2="0"
       gradientUnits="userSpaceOnUse"
       gradientTransform="matrix(0,-147.255,-147.255,0,1697.44,149.408)"
       spreadMethod="pad"
       id="linearGradient322"><stop
         style="stop-opacity:1;stop-color:#ff5f00"
         offset="0"
         id="stop308" /><stop
         style="stop-opacity:1;stop-color:#ff5f00"
         offset="0.18183991"
         id="stop310" /><stop
         style="stop-opacity:1;stop-color:#ff6e0f"
         offset="0.480408"
         id="stop312" /><stop
         style="stop-opacity:1;stop-color:#fc5500"
         offset="0.48651735"
         id="stop314" /><stop
         style="stop-opacity:1;stop-color:#fc5500"
         offset="0.510816"
         id="stop316" /><stop
         style="stop-opacity:1;stop-color:#ff6900"
         offset="0.81211931"
         id="stop318" /><stop
         style="stop-opacity:1;stop-color:#ff6900"
         offset="1"
         id="stop320" /></linearGradient><clipPath
       clipPathUnits="userSpaceOnUse"
       id="clipPath332"><path
         d="m 2023.14,79.3203 h -3.39 v -21.582 h 0.07 V 33.1992 c -7.03,-1.6679 -13.75,-2.4883 -19.95,-2.4883 -12.57,0 -22.3,1.2305 -28.93,3.8907 -5.75,2.1484 -8.46,5.9687 -8.46,11.8672 v 56.5822 c 0,4.387 0,17.832 34.24,17.832 21.15,0 40.7,-2 58.05,-5.977 l 4.18,-0.906 v 4.141 25.625 2.734 l -2.84,0.496 c -18.79,3.086 -38.78,4.563 -59.39,4.563 -6.92,0 -13.61,-0.325 -19.85,-0.989 -6.35,-0.664 -13.09,-2.07 -19.96,-4.218 -6.96,-2.168 -13.03,-4.981 -18.03,-8.309 -5.21,-3.477 -9.49,-8.293 -12.88,-14.426 -3.34,-6.062 -5.11,-13.191 -5.11,-21.062 V 44.0586 c 0,-7.1289 1.52,-13.5195 4.44,-18.918 2.93,-5.3789 6.86,-9.6992 11.7,-12.8515 4.6,-3.08988 10.43,-5.57816 17.22,-7.46879 6.63,-1.91015 13.37,-3.16015 19.97,-3.82031 6.61,-0.667969 14.02,-1 22.06,-1 9.79,0 20.65,0.839844 32.28,2.67188 11.68,1.72656 21.43,3.96875 29.03,6.6289 l 2.27,0.82032 v 2.25 63.7187 3.3086 l -3.42,-0.0781 z"
         id="path330" /></clipPath><linearGradient
       x1="0"
       y1="0"
       x2="1"
       y2="0"
       gradientUnits="userSpaceOnUse"
       gradientTransform="matrix(0,-151.553,-151.553,0,1990.38,151.557)"
       spreadMethod="pad"
       id="linearGradient348"><stop
         style="stop-opacity:1;stop-color:#ff5f00"
         offset="0"
         id="stop334" /><stop
         style="stop-opacity:1;stop-color:#ff5f00"
         offset="0.18183991"
         id="stop336" /><stop
         style="stop-opacity:1;stop-color:#ff6e0f"
         offset="0.480408"
         id="stop338" /><stop
         style="stop-opacity:1;stop-color:#fc5500"
         offset="0.48651735"
         id="stop340" /><stop
         style="stop-opacity:1;stop-color:#fc5500"
         offset="0.510816"
         id="stop342" /><stop
         style="stop-opacity:1;stop-color:#ff6900"
         offset="0.81211931"
         id="stop344" /><stop
         style="stop-opacity:1;stop-color:#ff6900"
         offset="1"
         id="stop346" /></linearGradient><clipPath
       clipPathUnits="userSpaceOnUse"
       id="clipPath358"><path
         d="m 2327.76,32.8594 h -74.32 v 29.5508 h 68.18 v 3.3007 24.0704 3.3085 h -3.39 -64.79 v 25.6252 h 72.09 3.4 v 3.32 24.055 3.316 h -3.4 -110.26 -3.4 V 146.09 5.48047 2.14844 h 3.4 112.49 3.41 v 3.33203 24.05863 3.3203 z"
         id="path356" /></clipPath><linearGradient
       x1="0"
       y1="0"
       x2="1"
       y2="0"
       gradientUnits="userSpaceOnUse"
       gradientTransform="matrix(0,-147.255,-147.255,0,2271.52,149.408)"
       spreadMethod="pad"
       id="linearGradient374"><stop
         style="stop-opacity:1;stop-color:#ff5f00"
         offset="0"
         id="stop360" /><stop
         style="stop-opacity:1;stop-color:#ff5f00"
         offset="0.18183991"
         id="stop362" /><stop
         style="stop-opacity:1;stop-color:#ff6e0f"
         offset="0.480408"
         id="stop364" /><stop
         style="stop-opacity:1;stop-color:#fc5500"
         offset="0.48651735"
         id="stop366" /><stop
         style="stop-opacity:1;stop-color:#fc5500"
         offset="0.510816"
         id="stop368" /><stop
         style="stop-opacity:1;stop-color:#ff6900"
         offset="0.81211931"
         id="stop370" /><stop
         style="stop-opacity:1;stop-color:#ff6900"
         offset="1"
         id="stop372" /></linearGradient><clipPath
       clipPathUnits="userSpaceOnUse"
       id="clipPath384"><path
         d="m 3902.43,79.3984 h -3.46 V 60.6602 l 0.15,-0.0782 V 33.1992 c -7.07,-1.6679 -13.76,-2.4883 -19.92,-2.4883 -12.58,0 -22.32,1.2305 -28.98,3.8907 -5.69,2.1484 -8.39,5.9687 -8.39,11.8672 v 56.5822 c 0,4.387 0,17.832 34.21,17.832 21.14,0 40.69,-2 58.06,-5.977 l 4.14,-0.906 v 4.141 25.625 2.734 l -2.81,0.496 c -18.78,3.086 -38.74,4.563 -59.39,4.563 -6.92,0 -13.64,-0.325 -19.85,-0.989 -6.38,-0.664 -13.1,-2.07 -19.99,-4.218 -6.95,-2.168 -13.01,-4.981 -17.99,-8.309 -5.24,-3.477 -9.49,-8.293 -12.85,-14.426 -3.42,-6.062 -5.16,-13.125 -5.16,-21.062 V 44.0586 c 0,-7.1289 1.52,-13.5195 4.45,-18.918 2.84,-5.3789 6.87,-9.6992 11.67,-12.8515 4.64,-3.08988 10.46,-5.57816 17.26,-7.46879 6.62,-1.91015 13.34,-3.16015 19.95,-3.82031 6.63,-0.667969 14,-1 22.1,-1 9.77,0 20.65,0.839844 32.28,2.67188 11.67,1.72656 21.44,3.96875 29,6.6289 l 2.25,0.82032 v 2.25 63.7187 3.2305 h -3.38 z"
         id="path382" /></clipPath><linearGradient
       x1="0"
       y1="0"
       x2="1"
       y2="0"
       gradientUnits="userSpaceOnUse"
       gradientTransform="matrix(0,-151.553,-151.553,0,3869.68,151.557)"
       spreadMethod="pad"
       id="linearGradient400"><stop
         style="stop-opacity:1;stop-color:#14191e"
         offset="0"
         id="stop386" /><stop
         style="stop-opacity:1;stop-color:#14191e"
         offset="0.16226029"
         id="stop388" /><stop
         style="stop-opacity:1;stop-color:#32373c"
         offset="0.5"
         id="stop390" /><stop
         style="stop-opacity:1;stop-color:#32373c"
         offset="0.50333422"
         id="stop392" /><stop
         style="stop-opacity:1;stop-color:#14191e"
         offset="0.51"
         id="stop394" /><stop
         style="stop-opacity:1;stop-color:#14191e"
         offset="0.66787767"
         id="stop396" /><stop
         style="stop-opacity:1;stop-color:#23282d"
         offset="1"
         id="stop398" /></linearGradient><clipPath
       clipPathUnits="userSpaceOnUse"
       id="clipPath410"><path
         d="m 4169.3,66.6992 h -32.7 L 4152.99,114 Z m 9.12,80.5628 -0.79,2.144 h -2.37 -42.39 -2.36 l -0.79,-2.144 -53.5,-140.62137 -1.67,-4.49219 h 4.9 34.29 2.44 l 0.76,2.25 11.94,34.83986 h 47.95 l 12.13,-34.83986 0.72,-2.25 h 2.5 35.17 4.87 l -1.63,4.49219 z"
         id="path408" /></clipPath><linearGradient
       x1="0"
       y1="0"
       x2="1"
       y2="0"
       gradientUnits="userSpaceOnUse"
       gradientTransform="matrix(0,-147.255,-147.255,0,4153.38,149.408)"
       spreadMethod="pad"
       id="linearGradient426"><stop
         style="stop-opacity:1;stop-color:#14191e"
         offset="0"
         id="stop412" /><stop
         style="stop-opacity:1;stop-color:#14191e"
         offset="0.16226029"
         id="stop414" /><stop
         style="stop-opacity:1;stop-color:#32373c"
         offset="0.5"
         id="stop416" /><stop
         style="stop-opacity:1;stop-color:#32373c"
         offset="0.50333422"
         id="stop418" /><stop
         style="stop-opacity:1;stop-color:#14191e"
         offset="0.51"
         id="stop420" /><stop
         style="stop-opacity:1;stop-color:#14191e"
         offset="0.66787767"
         id="stop422" /><stop
         style="stop-opacity:1;stop-color:#23282d"
         offset="1"
         id="stop424" /></linearGradient><clipPath
       clipPathUnits="userSpaceOnUse"
       id="clipPath436"><path
         d="m 4494.47,149.406 h -2.43 l -0.77,-2.234 -32.03,-91.422 -32.39,91.422 -0.74,2.234 h -2.5 -49.43 -3.42 V 146.09 5.48047 2.14844 h 3.42 31.85 3.4 V 5.48047 92.5156 l 31.93,-88.11716 0.77,-2.25 h 2.42 27.83 2.47 l 0.8,2.25 30.57,87.03126 V 5.48047 2.14844 h 3.38 31.48 3.35 V 5.48047 146.09 v 3.316 h -3.35 z"
         id="path434" /></clipPath><linearGradient
       x1="0"
       y1="0"
       x2="1"
       y2="0"
       gradientUnits="userSpaceOnUse"
       gradientTransform="matrix(0,-147.255,-147.255,0,4457.6,149.408)"
       spreadMethod="pad"
       id="linearGradient452"><stop
         style="stop-opacity:1;stop-color:#14191e"
         offset="0"
         id="stop438" /><stop
         style="stop-opacity:1;stop-color:#14191e"
         offset="0.16226029"
         id="stop440" /><stop
         style="stop-opacity:1;stop-color:#32373c"
         offset="0.5"
         id="stop442" /><stop
         style="stop-opacity:1;stop-color:#32373c"
         offset="0.50333422"
         id="stop444" /><stop
         style="stop-opacity:1;stop-color:#14191e"
         offset="0.51"
         id="stop446" /><stop
         style="stop-opacity:1;stop-color:#14191e"
         offset="0.66787767"
         id="stop448" /><stop
         style="stop-opacity:1;stop-color:#23282d"
         offset="1"
         id="stop450" /></linearGradient><clipPath
       clipPathUnits="userSpaceOnUse"
       id="clipPath462"><path
         d="m 4815.48,32.8594 h -74.34 v 29.5508 h 68.18 v 3.3007 24.0704 3.3085 h -3.42 -64.76 v 25.6252 h 72.08 3.44 v 3.32 24.055 3.316 h -3.44 -110.21 -3.46 V 146.09 5.48047 2.14844 h 3.46 112.47 3.42 v 3.33203 24.05863 3.3203 z"
         id="path460" /></clipPath><linearGradient
       x1="0"
       y1="0"
       x2="1"
       y2="0"
       gradientUnits="userSpaceOnUse"
       gradientTransform="matrix(0,-147.255,-147.255,0,4759.22,149.408)"
       spreadMethod="pad"
       id="linearGradient478"><stop
         style="stop-opacity:1;stop-color:#14191e"
         offset="0"
         id="stop464" /><stop
         style="stop-opacity:1;stop-color:#14191e"
         offset="0.16226029"
         id="stop466" /><stop
         style="stop-opacity:1;stop-color:#32373c"
         offset="0.5"
         id="stop468" /><stop
         style="stop-opacity:1;stop-color:#32373c"
         offset="0.50333422"
         id="stop470" /><stop
         style="stop-opacity:1;stop-color:#14191e"
         offset="0.51"
         id="stop472" /><stop
         style="stop-opacity:1;stop-color:#14191e"
         offset="0.66787767"
         id="stop474" /><stop
         style="stop-opacity:1;stop-color:#23282d"
         offset="1"
         id="stop476" /></linearGradient><clipPath
       clipPathUnits="userSpaceOnUse"
       id="clipPath488"><path
         d="m 3877.65,1076.02 c 0,4.2 -4.67,5.47 -6.79,2.21 -64.39,-98.871 -100.59,-155.335 -133.3,-206.554 -121.7,-0.063 -296.81,-0.102 -383.94,0.058 -4.76,0 -6.69,-6.183 -2.51,-7.754 159.28,-60.07 389.49,-150.597 517.93,-201.378 3.24,-1.348 8.61,1.789 8.61,4.074 z"
         id="path486" /></clipPath><linearGradient
       x1="0"
       y1="0"
       x2="1"
       y2="0"
       gradientUnits="userSpaceOnUse"
       gradientTransform="matrix(0,-417.794,-417.794,0,3613.23,1080.07)"
       spreadMethod="pad"
       id="linearGradient504"><stop
         style="stop-opacity:1;stop-color:#ff5f00"
         offset="0"
         id="stop490" /><stop
         style="stop-opacity:1;stop-color:#ff5f00"
         offset="0.18183991"
         id="stop492" /><stop
         style="stop-opacity:1;stop-color:#ff6e0f"
         offset="0.480408"
         id="stop494" /><stop
         style="stop-opacity:1;stop-color:#fc5500"
         offset="0.48651735"
         id="stop496" /><stop
         style="stop-opacity:1;stop-color:#fc5500"
         offset="0.510816"
         id="stop498" /><stop
         style="stop-opacity:1;stop-color:#ff6900"
         offset="0.81211931"
         id="stop500" /><stop
         style="stop-opacity:1;stop-color:#ff6900"
         offset="1"
         id="stop502" /></linearGradient></defs><sodipodi:namedview
     pagecolor="#ffffff"
     bordercolor="#666666"
     borderopacity="1"
     objecttolerance="10"
     gridtolerance="10"
     guidetolerance="10"
     inkscape:pageopacity="0"
     inkscape:pageshadow="2"
     inkscape:window-width="640"
     inkscape:window-height="480"
     id="namedview4" /><g
     id="g10"
     inkscape:groupmode="layer"
     inkscape:label="ink_ext_XXXXXX"
     transform="matrix(1.3333333,0,0,-1.3333333,0,144.01333)"><g
       id="g12"
       transform="scale(0.1)"><g
         id="g14"><g
           id="g16"
           clip-path="url(#clipPath20)"><path
             d="m 4090.89,874.82 v -87.734 h 207.64 c 24.58,0 36.94,-6.238 36.94,-18.809 V 373.578 h 237.12 v 394.699 c 0,12.571 12.29,18.809 36.9,18.809 h 207.66 v 87.734 z m -470.6,-497.824 0.2,1.008 h 252.7 v 171.23 L 3619.86,651.41 Z M 2706.35,860.91 c -33.48,-12.144 -50.14,-28.219 -50.14,-48.277 V 436.734 c 0,-20.078 16.66,-36.171 50.14,-48.254 27.58,-9.609 57.77,-14.394 90.74,-14.394 h 422.93 v 87.676 h -291.36 c -25.12,0 -37.63,6.308 -37.63,18.894 v 100.192 h 328.99 v 87.715 h -328.99 v 100.226 c 0,12.527 12.51,18.793 37.63,18.793 h 291.36 v 87.711 h -422.93 c -32.97,0 -63.16,-4.844 -90.74,-14.383 z m -895.56,-59.246 c -73.48,-49.047 -110.24,-108.125 -110.24,-176.937 0,-68.989 36.76,-127.985 110.24,-176.997 73.53,-49.121 161.81,-73.644 265.05,-73.644 h 281.87 v 87.676 h -281.87 c -48.92,0 -81.88,20.683 -99,62.011 -9.22,22.559 -13.77,56.219 -13.77,100.954 0,44.64 4.55,78.226 13.77,100.824 17.12,41.344 50.08,62.031 99,62.031 h 281.87 v 87.711 h -281.87 c -103.24,0 -191.52,-24.488 -265.05,-73.629 z M 977.402,524.457 1081.47,723.086 1185.49,524.457 Z m 254.438,332.027 c -28.79,12.504 -59.32,18.809 -91.47,18.809 -33.02,0 -63.18,-6.473 -90.53,-19.449 -27.37,-12.965 -46.5,-29.637 -57.328,-50.094 L 766.367,374.086 H 897.93 l 32.812,62.648 h 301.198 l 32.55,-62.648 h 253.69 l -227.46,434.156 c -10.45,19.617 -30.12,35.75 -58.88,48.242 z M 50.1172,860.91 C 16.6992,848.766 0,832.691 0,812.633 V 374.086 h 234.902 v 206.762 h 328.926 v 87.715 H 234.902 v 100.226 c 0,12.527 12.52,18.793 37.559,18.793 h 291.367 v 87.711 h -422.91 c -33.008,0 -63.2813,-4.844 -90.8008,-14.383"
             style="fill:url(#linearGradient36);fill-opacity:1;fill-rule:nonzero;stroke:none"
             id="path38" /></g></g><g
         id="g40"><g
           id="g42"
           clip-path="url(#clipPath46)"><path
             d="m 2664.23,149.406 h -2.12 l -1,-1.746 -27.24,-49.5975 -27.54,49.5975 -0.91,1.746 h -2.07 -39.41 -6.08 l 3.18,-4.976 51.82,-83.5316 V 5.48047 2.14844 h 3.43 34.74 3.37 V 5.48047 61.3203 l 52.3,83.0317 3.19,5.054 h -6.04 -39.62"
             style="fill:url(#linearGradient62);fill-opacity:1;fill-rule:nonzero;stroke:none"
             id="path64" /></g></g><g
         id="g66"><g
           id="g68"
           clip-path="url(#clipPath72)"><path
             d="m 2917.66,30.7109 c -4.74,0 -8.76,0.1485 -11.96,0.4883 -3.13,0.3321 -6.46,0.9922 -9.89,2 -3,0.7422 -5.21,2.0703 -6.65,3.8906 -1.44,1.8321 -2.21,4.0586 -2.21,6.9688 v 61.8044 c 0,5.645 2.17,9.289 6.61,11.367 5.18,2.395 13.25,3.653 23.88,3.653 10.58,0 18.6,-1.258 23.76,-3.731 4.57,-2.168 6.74,-5.82 6.74,-11.289 V 44.0586 c 0,-2.9102 -0.76,-5.2383 -2.13,-6.9688 -1.45,-1.8203 -3.53,-3.1484 -6.43,-3.8906 -3.31,-1.0078 -6.54,-1.6679 -9.69,-2 -3.23,-0.3398 -7.26,-0.4883 -12.03,-0.4883 z m 53.24,109.3201 c -4.96,3.071 -11.03,5.559 -17.98,7.485 -6.89,1.824 -13.12,2.976 -18.58,3.394 -5.4,0.5 -11.12,0.649 -17.08,0.649 -5.86,0 -11.5,-0.149 -16.77,-0.649 -5.4,-0.418 -11.62,-1.57 -18.52,-3.394 -6.95,-1.926 -12.96,-4.414 -17.91,-7.485 -5.12,-3.14 -9.54,-7.781 -13.11,-13.679 -3.69,-5.965 -5.55,-12.95 -5.55,-20.743 V 44.0586 c 0,-9.207 2.59,-17.168 7.57,-23.4883 4.88,-6.289 11.51,-10.85155 19.8,-13.67967 7.83,-2.65235 15.33,-4.46875 22.25,-5.48047 C 2901.93,0.5 2909.4,0 2917.26,0 c 8.28,0 16.23,0.601563 23.67,1.75 7.51,1.23828 15.1,3.30859 22.57,6.14063 7.82,3.07027 14.18,7.71097 18.87,13.83987 4.73,6.1406 7.09,13.6914 7.09,22.3281 v 61.5504 c 0,7.891 -1.79,14.922 -5.36,20.821 -3.49,5.89 -7.91,10.461 -13.2,13.601"
             style="fill:url(#linearGradient88);fill-opacity:1;fill-rule:nonzero;stroke:none"
             id="path90" /></g></g><g
         id="g92"><g
           id="g94"
           clip-path="url(#clipPath98)"><path
             d="m 3235.13,149.406 h -3.41 V 44.0586 c 0,-5.1367 -1.49,-8.5391 -4.56,-10.2969 -2.47,-1.4023 -7.87,-3.0508 -19.66,-3.0508 -11.94,0 -17.54,1.6485 -20.15,3.1289 -3.16,1.75 -4.73,5.0821 -4.73,10.2188 v 102.0314 3.316 h -3.4 -34.76 -3.43 V 146.09 44.0586 C 3141.03,14.7813 3163.28,0 3207.09,0 c 43.87,0 66.18,14.7813 66.18,44.0586 v 102.0314 3.316 h -3.38 -34.76"
             style="fill:url(#linearGradient114);fill-opacity:1;fill-rule:nonzero;stroke:none"
             id="path116" /></g></g><g
         id="g118"><g
           id="g120"
           clip-path="url(#clipPath124)"><path
             d="m 3469.56,118.715 h 26.46 c 8.73,0 12.73,-1.317 14.61,-2.402 0.69,-0.489 3.14,-1.895 3.14,-7.891 V 98.3828 c 0,-3.3008 -0.56,-7.6953 -3.06,-9.5195 -1.33,-0.9102 -4.98,-2.4922 -14.69,-2.4922 h -26.46 z M 3562.95,7.37891 3524.14,60.9805 c 7.64,1.5703 14.17,4.3203 19.69,8.3789 7.18,5.2187 10.83,12.7734 10.83,22.3945 v 24.6371 c 0,12.207 -5.05,20.832 -15.02,25.968 -9.27,4.735 -23.45,7.047 -43.2,7.047 H 3431.41 3428 V 146.09 5.48047 2.14844 h 3.41 34.74 3.41 V 5.48047 57.4219 h 10.81 l 36.89,-53.76174 0.98,-1.51172 h 1.82 40.08 6.55 l -3.74,5.23047"
             style="fill:url(#linearGradient140);fill-opacity:1;fill-rule:nonzero;stroke:none"
             id="path142" /></g></g><g
         id="g144"><g
           id="g146"
           clip-path="url(#clipPath150)"><path
             d="m 74.043,30.7109 c -32.4805,0 -32.4805,11.8594 -32.4805,15.7579 v 59.8122 c 0,3.305 0.6836,6.039 2.0117,7.961 1.2891,1.906 3.2617,3.313 6.0352,4.219 3.2109,1.086 6.2969,1.75 9.2578,2.004 3.0976,0.332 7.1484,0.418 12.0234,0.418 12.293,0 27.3321,-2 44.6754,-5.977 l 4.2,-0.906 v 4.141 25.379 2.832 l -2.864,0.402 c -19.7223,3.238 -35.359,4.805 -46.4332,4.805 C 23.6914,151.559 0,136.215 0,105.863 V 44.0586 C 0,36.5117 1.71875,29.8789 5.15625,24.3203 8.52344,18.7383 12.7539,14.3594 17.7148,11.2813 22.5195,8.21875 28.3906,5.80078 35.1758,4.08203 41.7969,2.42188 47.8906,1.33984 53.3008,0.75 58.7109,0.261719 64.4727,0 70.4688,0 85.4297,0 101.406,1.58984 117.898,4.82031 l 2.766,0.57813 v 2.65234 25.64842 4.1406 l -4.199,-0.9882 C 98.5352,32.7813 84.2578,30.7109 74.043,30.7109"
             style="fill:url(#linearGradient166);fill-opacity:1;fill-rule:nonzero;stroke:none"
             id="path168" /></g></g><g
         id="g170"><g
           id="g172"
           clip-path="url(#clipPath176)"><path
             d="m 366.516,149.406 h -3.411 V 93.0898 h -54.648 v 53.0002 3.316 h -3.43 -34.746 -3.418 V 146.09 5.48047 2.14844 h 3.418 34.746 3.43 V 5.48047 62.4102 h 54.648 V 5.48047 2.14844 h 3.411 34.754 3.41 V 5.48047 146.09 v 3.316 h -3.41 -34.754"
             style="fill:url(#linearGradient192);fill-opacity:1;fill-rule:nonzero;stroke:none"
             id="path194" /></g></g><g
         id="g196"><g
           id="g198"
           clip-path="url(#clipPath202)"><path
             d="m 637.938,66.6992 h -32.704 l 16.348,47.3668 z m 9.125,80.5628 -0.813,2.144 h -2.402 -42.305 -2.355 L 598.352,147.262 544.883,6.64063 543.164,2.14844 h 4.902 34.317 2.453 l 0.777,2.25 11.907,34.83986 h 47.91 l 12.136,-34.83986 0.774,-2.25 h 2.461 35.215 4.843 L 699.18,6.64063 647.063,147.262"
             style="fill:url(#linearGradient218);fill-opacity:1;fill-rule:nonzero;stroke:none"
             id="path220" /></g></g><g
         id="g222"><g
           id="g224"
           clip-path="url(#clipPath228)"><path
             d="M 880.957,32.8594 V 149.406 H 839.375 V 2.14844 h 3.406 105.852 3.379 v 3.33203 24.05863 3.3203 h -3.379 -67.676"
             style="fill:url(#linearGradient244);fill-opacity:1;fill-rule:nonzero;stroke:none"
             id="path246" /></g></g><g
         id="g248"><g
           id="g250"
           clip-path="url(#clipPath254)"><path
             d="M 1140.94,32.8594 V 149.406 h -41.59 V 2.14844 h 3.43 105.81 3.4 v 3.33203 24.05863 3.3203 h -3.4 -67.65"
             style="fill:url(#linearGradient270);fill-opacity:1;fill-rule:nonzero;stroke:none"
             id="path272" /></g></g><g
         id="g274"><g
           id="g276"
           clip-path="url(#clipPath280)"><path
             d="m 1400.9,32.8594 v 29.5508 h 68.16 v 30.6796 h -3.4 -64.76 v 25.6252 h 72.1 3.42 v 3.32 24.055 3.316 h -3.42 -110.26 -3.42 V 146.09 5.48047 2.14844 h 3.42 112.49 3.4 v 3.33203 24.05863 3.3203 h -3.4 -74.33"
             style="fill:url(#linearGradient296);fill-opacity:1;fill-rule:nonzero;stroke:none"
             id="path298" /></g></g><g
         id="g300"><g
           id="g302"
           clip-path="url(#clipPath306)"><path
             d="m 1734.51,149.406 h -3.4 V 60.582 l -63.75,87.422 -1.01,1.402 h -1.77 -35.19 -3.41 V 146.09 5.48047 2.14844 h 3.41 30.94 3.44 V 5.48047 92.418 l 63.73,-88.83597 1.02,-1.43359 h 1.79 35.17 3.43 V 5.48047 146.09 v 3.316 h -3.43 -30.97"
             style="fill:url(#linearGradient322);fill-opacity:1;fill-rule:nonzero;stroke:none"
             id="path324" /></g></g><g
         id="g326"><g
           id="g328"
           clip-path="url(#clipPath332)"><path
             d="m 2023.14,79.3203 h -3.39 v -21.582 h 0.07 V 33.1992 c -7.03,-1.6679 -13.75,-2.4883 -19.95,-2.4883 -12.57,0 -22.3,1.2305 -28.93,3.8907 -5.75,2.1484 -8.46,5.9687 -8.46,11.8672 v 56.5822 c 0,4.387 0,17.832 34.24,17.832 21.15,0 40.7,-2 58.05,-5.977 l 4.18,-0.906 v 4.141 25.625 2.734 l -2.84,0.496 c -18.79,3.086 -38.78,4.563 -59.39,4.563 -6.92,0 -13.61,-0.325 -19.85,-0.989 -6.35,-0.664 -13.09,-2.07 -19.96,-4.218 -6.96,-2.168 -13.03,-4.981 -18.03,-8.309 -5.21,-3.477 -9.49,-8.293 -12.88,-14.426 -3.34,-6.062 -5.11,-13.191 -5.11,-21.062 V 44.0586 c 0,-7.1289 1.52,-13.5195 4.44,-18.918 2.93,-5.3789 6.86,-9.6992 11.7,-12.8515 4.6,-3.08988 10.43,-5.57816 17.22,-7.46879 6.63,-1.91015 13.37,-3.16015 19.97,-3.82031 6.61,-0.667969 14.02,-1 22.06,-1 9.79,0 20.65,0.839844 32.28,2.67188 11.68,1.72656 21.43,3.96875 29.03,6.6289 l 2.27,0.82032 v 2.25 63.7187 3.3086 l -3.42,-0.0781 h -33.3"
             style="fill:url(#linearGradient348);fill-opacity:1;fill-rule:nonzero;stroke:none"
             id="path350" /></g></g><g
         id="g352"><g
           id="g354"
           clip-path="url(#clipPath358)"><path
             d="m 2327.76,32.8594 h -74.32 v 29.5508 h 68.18 v 3.3007 24.0704 3.3085 h -3.39 -64.79 v 25.6252 h 72.09 3.4 v 3.32 24.055 3.316 h -3.4 -110.26 -3.4 V 146.09 5.48047 2.14844 h 3.4 112.49 3.41 v 3.33203 24.05863 3.3203 h -3.41"
             style="fill:url(#linearGradient374);fill-opacity:1;fill-rule:nonzero;stroke:none"
             id="path376" /></g></g><g
         id="g378"><g
           id="g380"
           clip-path="url(#clipPath384)"><path
             d="m 3902.43,79.3984 h -3.46 V 60.6602 l 0.15,-0.0782 V 33.1992 c -7.07,-1.6679 -13.76,-2.4883 -19.92,-2.4883 -12.58,0 -22.32,1.2305 -28.98,3.8907 -5.69,2.1484 -8.39,5.9687 -8.39,11.8672 v 56.5822 c 0,4.387 0,17.832 34.21,17.832 21.14,0 40.69,-2 58.06,-5.977 l 4.14,-0.906 v 4.141 25.625 2.734 l -2.81,0.496 c -18.78,3.086 -38.74,4.563 -59.39,4.563 -6.92,0 -13.64,-0.325 -19.85,-0.989 -6.38,-0.664 -13.1,-2.07 -19.99,-4.218 -6.95,-2.168 -13.01,-4.981 -17.99,-8.309 -5.24,-3.477 -9.49,-8.293 -12.85,-14.426 -3.42,-6.062 -5.16,-13.125 -5.16,-21.062 V 44.0586 c 0,-7.1289 1.52,-13.5195 4.45,-18.918 2.84,-5.3789 6.87,-9.6992 11.67,-12.8515 4.64,-3.08988 10.46,-5.57816 17.26,-7.46879 6.62,-1.91015 13.34,-3.16015 19.95,-3.82031 6.63,-0.667969 14,-1 22.1,-1 9.77,0 20.65,0.839844 32.28,2.67188 11.67,1.72656 21.44,3.96875 29,6.6289 l 2.25,0.82032 v 2.25 63.7187 3.2305 h -3.38 l -33.35,0.0781"
             style="fill:url(#linearGradient400);fill-opacity:1;fill-rule:nonzero;stroke:none"
             id="path402" /></g></g><g
         id="g404"><g
           id="g406"
           clip-path="url(#clipPath410)"><path
             d="m 4169.3,66.6992 h -32.7 L 4152.99,114 Z m 9.12,80.5628 -0.79,2.144 h -2.37 -42.39 -2.36 l -0.79,-2.144 -53.5,-140.62137 -1.67,-4.49219 h 4.9 34.29 2.44 l 0.76,2.25 11.94,34.83986 h 47.95 l 12.13,-34.83986 0.72,-2.25 h 2.5 35.17 4.87 l -1.63,4.49219 -52.17,140.62137"
             style="fill:url(#linearGradient426);fill-opacity:1;fill-rule:nonzero;stroke:none"
             id="path428" /></g></g><g
         id="g430"><g
           id="g432"
           clip-path="url(#clipPath436)"><path
             d="m 4494.47,149.406 h -2.43 l -0.77,-2.234 -32.03,-91.422 -32.39,91.422 -0.74,2.234 h -2.5 -49.43 -3.42 V 146.09 5.48047 2.14844 h 3.42 31.85 3.4 V 5.48047 92.5156 l 31.93,-88.11716 0.77,-2.25 h 2.42 27.83 2.47 l 0.8,2.25 30.57,87.03126 V 5.48047 2.14844 h 3.38 31.48 3.35 V 5.48047 146.09 v 3.316 h -3.35 -46.61"
             style="fill:url(#linearGradient452);fill-opacity:1;fill-rule:nonzero;stroke:none"
             id="path454" /></g></g><g
         id="g456"><g
           id="g458"
           clip-path="url(#clipPath462)"><path
             d="m 4815.48,32.8594 h -74.34 v 29.5508 h 68.18 v 3.3007 24.0704 3.3085 h -3.42 -64.76 v 25.6252 h 72.08 3.44 v 3.32 24.055 3.316 h -3.44 -110.21 -3.46 V 146.09 5.48047 2.14844 h 3.46 112.47 3.42 v 3.33203 24.05863 3.3203 h -3.42"
             style="fill:url(#linearGradient478);fill-opacity:1;fill-rule:nonzero;stroke:none"
             id="path480" /></g></g><g
         id="g482"><g
           id="g484"
           clip-path="url(#clipPath488)"><path
             d="m 3877.65,1076.02 c 0,4.2 -4.67,5.47 -6.79,2.21 -64.39,-98.871 -100.59,-155.335 -133.3,-206.554 -121.7,-0.063 -296.81,-0.102 -383.94,0.058 -4.76,0 -6.69,-6.183 -2.51,-7.754 159.28,-60.07 389.49,-150.597 517.93,-201.378 3.24,-1.348 8.61,1.789 8.61,4.074 v 409.344"
             style="fill:url(#linearGradient504);fill-opacity:1;fill-rule:nonzero;stroke:none"
             id="path506" /></g></g></g></g></svg>
